<?xml version="1.0" encoding="UTF-8"?>
<svg id="_图层_1" data-name="图层 1" xmlns="http://www.w3.org/2000/svg" viewBox="0 0 720.75 683.25">
  <path d="M720.75,683.25H0V0H720.75V683.25ZM88.38,421.08c-.14,1.84-.3,2.91-.3,3.99-.01,28.47,.03,56.94-.07,85.41,0,2.79,1.05,4.25,3.35,5.56,16.85,9.62,33.63,19.36,50.44,29.05,38.24,22.05,76.48,44.09,114.71,66.15,36.81,21.24,73.6,42.51,110.47,63.64,1.18,.68,3.44,.57,4.67-.12,11.18-6.22,22.26-12.63,33.34-19.04,38.2-22.07,76.38-44.19,114.59-66.24,42.44-24.48,84.89-48.94,127.38-73.32,2.61-1.5,3.52-3.25,3.52-6.24-.09-44.21-.08-88.41-.01-132.62,0-2.58-.83-4.1-3.07-5.38-27.95-16.02-55.86-32.09-83.75-48.2-53.65-30.99-107.28-62.04-160.93-93.03-36.65-21.17-73.34-42.28-110-63.42-3.2-1.85-3.22-2.51-.11-4.32,24.6-14.36,49.18-28.74,73.87-42.95,1.41-.81,4.06-.87,5.45-.08,16.44,9.29,32.76,18.8,49.1,28.27,36.11,20.92,72.21,41.86,108.32,62.78,36.41,21.09,72.83,42.15,109.25,63.21,3.59,2.08,7.24,4.04,11.35,6.33,.22-1.63,.45-2.56,.45-3.49,.02-28.72,.06-57.44-.11-86.16,0-1.58-1.36-3.81-2.75-4.62-26.3-15.38-52.7-30.6-79.09-45.83-38.33-22.12-76.67-44.21-115.01-66.32-27.24-15.7-54.49-31.38-81.69-47.15-1.88-1.09-3.13-1.14-5.03,0-8.86,5.28-17.85,10.33-26.79,15.48-42.08,24.3-84.15,48.63-126.24,72.9-40.4,23.3-80.81,46.57-121.28,69.74-3.2,1.83-4.46,3.85-4.45,7.65,.16,34.84,.1,69.68,.1,104.52,0,9.12-.13,18.23,.11,27.34,.04,1.66,1.13,4.01,2.46,4.8,18.21,10.74,36.54,21.28,54.86,31.83,34.06,19.62,68.15,39.2,102.2,58.84,35.58,20.52,71.12,41.09,106.69,61.62,29.76,17.18,59.54,34.31,89.29,51.5,1.75,1.01,3.35,2.28,5.19,3.54-.68,.63-.9,.94-1.2,1.11-25.13,14.68-50.28,29.33-75.4,44.03-2.22,1.3-4.16,1.11-6.29-.12-29.86-17.35-59.73-34.69-89.62-51.98-25.04-14.49-50.14-28.9-75.18-43.39-27.93-16.17-55.82-32.41-83.74-48.6-9.42-5.46-18.88-10.85-29.06-16.7Z" style="fill: #fff;"/>
  <path d="M88.38,421.08c10.18,5.85,19.64,11.23,29.06,16.7,27.92,16.19,55.81,32.43,83.74,48.6,25.04,14.5,50.13,28.9,75.18,43.39,29.89,17.3,59.76,34.64,89.62,51.98,2.13,1.24,4.06,1.42,6.29,.12,25.12-14.71,50.27-29.36,75.4-44.03,.3-.17,.52-.48,1.2-1.11-1.84-1.26-3.44-2.53-5.19-3.54-29.75-17.18-59.53-34.32-89.29-51.5-35.57-20.53-71.11-41.1-106.69-61.62-34.05-19.64-68.14-39.22-102.2-58.84-18.32-10.55-36.65-21.09-54.86-31.83-1.34-.79-2.42-3.15-2.46-4.8-.24-9.11-.11-18.23-.11-27.34,0-34.84,.07-69.68-.1-104.52-.02-3.8,1.24-5.82,4.45-7.65,40.47-23.17,80.88-46.45,121.28-69.74,42.1-24.27,84.16-48.6,126.24-72.9,8.93-5.16,17.93-10.21,26.79-15.48,1.9-1.13,3.16-1.08,5.03,0,27.2,15.77,54.45,31.45,81.69,47.15,38.34,22.1,76.68,44.2,115.01,66.32,26.39,15.23,52.79,30.45,79.09,45.83,1.38,.81,2.74,3.04,2.75,4.62,.16,28.72,.12,57.44,.11,86.16,0,.93-.23,1.86-.45,3.49-4.11-2.29-7.76-4.25-11.35-6.33-36.42-21.06-72.84-42.13-109.25-63.21-36.11-20.91-72.21-41.86-108.32-62.78-16.34-9.47-32.66-18.98-49.1-28.27-1.4-.79-4.04-.73-5.45,.08-24.68,14.21-49.27,28.6-73.87,42.95-3.1,1.81-3.09,2.47,.11,4.32,36.67,21.14,73.35,42.25,110,63.42,53.66,30.99,107.28,62.03,160.93,93.03,27.89,16.11,55.81,32.18,83.75,48.2,2.23,1.28,3.07,2.8,3.07,5.38-.07,44.21-.08,88.41,.01,132.62,0,2.99-.91,4.74-3.52,6.24-42.49,24.39-84.95,48.84-127.38,73.32-38.21,22.05-76.39,44.17-114.59,66.24-11.08,6.4-22.16,12.81-33.34,19.04-1.23,.68-3.49,.79-4.67,.12-36.87-21.13-73.66-42.41-110.47-63.64-38.23-22.06-76.47-44.1-114.71-66.15-16.81-9.69-33.59-19.42-50.44-29.05-2.3-1.31-3.36-2.77-3.35-5.56,.1-28.47,.06-56.94,.07-85.41,0-1.07,.16-2.15,.3-3.99Zm79.44-163.33c0,6.49,.23,12.99-.09,19.47-.16,3.31,1.25,4.85,3.86,6.33,14.91,8.48,29.75,17.1,44.62,25.67,38.34,22.11,76.69,44.2,115.03,66.32,38.21,22.04,76.4,44.12,114.61,66.16,27.22,15.71,54.48,31.36,81.67,47.13,1.9,1.1,3.16,1.08,5.04-.02,11.61-6.74,23.3-13.32,34.99-19.92,2.07-1.17,2.85-2.75,2.83-5.17-.11-13.11-.14-26.22,.02-39.32,.04-2.9-.96-4.45-3.41-5.86-40.08-23.09-80.1-46.27-120.15-69.4-38.32-22.12-76.67-44.17-114.98-66.3-40.12-23.18-80.2-46.44-120.37-69.54-1.45-.83-4.09-1.06-5.48-.29-12.1,6.61-24.08,13.46-35.99,20.42-1.09,.64-2.07,2.45-2.1,3.75-.21,6.86-.1,13.73-.1,20.6Z"/>
  <path d="M167.82,257.75c0-6.87-.11-13.74,.1-20.6,.04-1.3,1.01-3.11,2.1-3.75,11.91-6.95,23.89-13.8,35.99-20.42,1.39-.76,4.03-.54,5.48,.29,40.17,23.1,80.24,46.36,120.37,69.54,38.31,22.13,76.67,44.18,114.98,66.3,40.05,23.13,80.07,46.31,120.15,69.4,2.44,1.41,3.44,2.96,3.41,5.86-.17,13.11-.13,26.22-.02,39.32,.02,2.43-.76,4-2.83,5.17-11.69,6.6-23.39,13.18-34.99,19.92-1.88,1.09-3.14,1.12-5.04,.02-27.19-15.77-54.44-31.42-81.67-47.13-38.21-22.04-76.4-44.12-114.61-66.16-38.34-22.12-76.68-44.21-115.03-66.32-14.86-8.57-29.7-17.19-44.62-25.67-2.61-1.48-4.02-3.03-3.86-6.33,.32-6.48,.09-12.98,.09-19.47Z" style="fill: #fff;"/>
</svg>